# xmcd CD database file
#
# Track frame offsets:
#	150
#	14977
#	27468
#	42966
#	58863
#	74377
#	90049
#	110793
#	136686
#	162246
#	178187
#	193842
#	207113
#	228831
#	250343
#	268783
#	278765
#	294470
#	313169
#
# Disc length: 4320 seconds
#
# Revision: 0
# Processed by: cddbd v1.5.2PL0 Copyright (c) Steve Scherf et al.
# Submitted via: Feurio! 1.68 - http://www.feurio.com
#
DISCID=1e10de13
DTITLE=BBC Blues Sessions   Volume 1 - Dr. Feelgood, Charlie Musselwhite, The 
DTITLE=Derek Trucks Band, North Mississippi Allstars, Fruteland Jackson, Otis 
DTITLE=Taylor
DYEAR=1900
DGENRE=
TTITLE0=Dr Feelgood - All Through The City (Broadcast 4th May 2006)
TTITLE1=Dr Feelgood - She's A Wind Up (Broadcast 4th May 2006)
TTITLE2=Dr Feelgood - Too Much Trouble (Broadcast 4th May 2006)
TTITLE3=Dr Feelgood - Instinct To Survive (Broadcast 21st September 2006)
TTITLE4=Charlie Musselwhite - Sundown (Broadcast 15th June 2006)
TTITLE5=Charlie Musselwhite - Blues For Yesterday (Broadcast 15th June 2006)
TTITLE6=The Derek Trucks Band - Crow Jane (Broadcast 29th June 2006)
TTITLE7=The Derek Trucks Band - All I Do (Broadcast 29th June 2006)
TTITLE8=The Derek Trucks Band - I Wish I Knew (How It Would Feel To Be Free) 
TTITLE8=(Broadcast 29th June 2006)
TTITLE9=North Mississippi Allstars - Teasin' Brown (Broadcast 6th July 2006)
TTITLE10=North Mississippi Allstars - Bang Bang Lulu (Broadcast 6th July 2006)
TTITLE11=North Mississippi Allstars - Mississippi Boll Weevil (Broadcast 6th 
TTITLE11=July 2006)
TTITLE12=Fruteland Jackson - Highway Blues and Key To The Highway (Broadcast 
TTITLE12=13th July 2006)
TTITLE13=Fruteland Jackson - A Gambler's View (Broadcast 13th July 2006)
TTITLE14=Fruteland Jackson - How Long (Broadcast 13th July 2006)
TTITLE15=Fruteland Jackson - I Don't Want You No More (Broadcast 13th July 
TTITLE15=2006)
TTITLE16=Otis Taylor - Back Pocket (Broadcast 20th July 2006)
TTITLE17=Otis Taylor - If You Wore Blue (Broadcast 20th July 2006)
TTITLE18=Otis Taylor - Mexican Cowboy (Broadcast 20th July 2006)
EXTD=
EXTT0=
EXTT1=
EXTT2=
EXTT3=
EXTT4=
EXTT5=
EXTT6=
EXTT7=
EXTT8=
EXTT9=
EXTT10=
EXTT11=
EXTT12=
EXTT13=
EXTT14=
EXTT15=
EXTT16=
EXTT17=
EXTT18=
PLAYORDER=
